<svg width="1200" height="630" viewBox="0 0 1200 630" fill="none" xmlns="http://www.w3.org/2000/svg">
<rect width="1200" height="630" fill="#04392E"/>
<path d="M345.375 249.424L340.093 264.236C355.539 252.106 376.66 243.967 395.56 253.451C423.326 267.387 419.429 309.388 408.94 333.39C407.026 337.771 404.369 341.863 402.507 346.264C421.073 339.723 436.961 326.491 447.152 309.703C450.981 303.396 453.285 296.597 456.892 290.341C469.029 269.287 494.478 251.055 519.137 249.422C565.77 246.335 576.372 299.82 539.657 322.875C521.392 334.345 499.43 335.819 478.381 335.704C477.017 335.697 475.813 334.624 474.98 335.938C482.529 357.762 509.039 361.11 530.412 355.459L530.409 355.463L530.432 355.454C531.9 355.066 533.342 354.632 534.754 354.162L534.752 354.164C534.752 354.164 535.881 353.837 537.813 353.056C541.124 351.775 544.216 350.281 546.965 348.604C547.631 348.197 548.255 347.75 548.9 347.323C561.598 339.414 579.965 323.319 591.541 292.464C591.547 292.449 591.552 292.435 591.558 292.419C593.671 287.986 595.674 283.278 597.52 278.259C597.607 278.117 597.692 277.973 597.779 277.833L598.605 275.3C599.787 271.896 600.811 268.741 601.707 265.79L606.985 249.606H633.079C637.775 249.606 631.641 262.007 632.423 262.993C660.072 237.729 708.658 240.332 703.187 287.619C701.46 302.541 687.314 328.662 687.479 341.34C687.592 349.951 694.096 353.632 702.055 352.13C709.16 350.79 714.175 344.737 719.971 339.675C724.422 344.894 731.933 353.633 735.972 358.511C717.199 380.08 671.54 395.198 660.11 359.122C651.993 333.499 672.95 310.312 673.932 287.701C674.152 282.628 672.553 277.317 667.268 275.639C651.357 270.586 625.69 300.773 616.567 312.078L594.942 378.136H566.841L566.513 374.071L569.954 362.946C566.077 366.293 561.802 369.458 557.012 372.415C521.952 394.058 461.286 389.595 449.042 344.148C426.087 364.571 396.945 379.629 366.193 383.763C345.217 386.583 316.487 385.558 302.476 367.429L261.081 479.5L258.984 478.718L258.913 478.907L235.812 470.074L284.794 334.884C296.277 304.287 307.34 273.523 318.374 242.777L345.375 249.424ZM697.663 200.285C699.605 197.563 746.784 133.924 884.676 158.363C934.852 167.257 970.753 166.465 992.032 164.234C1014.96 161.83 1026.26 157.289 1026.4 157.233L1037.48 183.499C1035.39 184.393 985.087 205.117 879.705 186.438C879.319 186.369 878.93 186.301 878.54 186.234C870.399 199.117 851.047 230.52 833.147 265.423C819.592 291.856 788.931 356.101 796.974 381.72L769.786 390.264C761.425 363.629 773.892 318.468 807.899 252.2C822.39 223.963 837.492 198.428 847.422 182.263C817.863 179.921 783.958 181.53 754.603 193.933C730.639 204.057 720.858 216.854 720.762 216.982L720.858 216.849L697.663 200.285ZM1038.91 249.395C1086.32 246.217 1096.77 299.738 1059.99 322.886C1041.81 334.331 1019.67 335.818 998.707 335.703C997.343 335.696 996.139 334.624 995.307 335.938C1004.43 362.77 1036.31 364.084 1058.25 352.361C1067.22 347.564 1074.24 340.331 1081.7 333.606L1100 348.171C1079.45 375.533 1046.83 392.227 1012.12 384.73C993.221 380.647 976.331 367.366 970.957 348.381C970.106 348.189 969.877 348.676 969.357 349.158C966.362 351.937 963.414 356.312 960.389 359.236C945.068 374.038 925.067 383.817 903.544 384.918C818.339 389.278 817.998 285.085 886.671 255.314C914.755 243.139 954.387 250.398 951.913 287.777C949.196 328.828 900.888 335.879 868.589 335.703C867.225 335.695 866.022 334.624 865.189 335.938C874.812 363.882 911.934 361.53 933.041 348.808C957.109 334.301 964.05 313.336 977.034 290.686C989.068 269.693 1014.24 251.049 1038.91 249.395ZM216.68 150.645C255.317 148.719 275.02 166.313 284.744 181.41C300.179 205.375 301.858 239.821 289.472 278.404C270.841 336.437 221.346 381.901 174.342 384.157C170.786 384.327 167.289 384.265 163.873 383.976C142.763 382.191 124.622 371.774 113.095 354.494C99.2471 333.737 96.2673 306.127 104.705 276.749C112.11 250.965 131.704 229.314 143.095 218.409L127.517 195.114C129.523 193.38 177.112 152.616 216.68 150.645ZM387.541 313.037C391.52 298.373 392.489 275.063 371.187 276.569C353.263 277.835 331.322 297.565 322.413 312.439C318.132 319.586 315.979 327.722 312.819 335.404C315.865 352.486 329.978 360.101 346.544 357.222C367.298 353.615 382.333 332.229 387.541 313.037ZM262.952 199.568C252.155 182.805 232.169 180.169 217.306 180.911C191.975 182.174 156.448 208.044 144.09 218.553L160.615 240.937C145.228 255.549 134.139 271.813 130.191 285.557C124.529 305.272 126.104 323.165 134.625 335.939C142.891 348.329 156.792 354.706 173.76 353.888C210.323 352.133 249.242 315.466 264.288 268.598C273.405 240.201 272.917 215.041 262.952 199.568ZM534.751 285.642C534.922 273.429 517.415 276.391 510.127 279.04C495.019 284.532 481.535 298.427 476.023 313.446C493.713 314.299 534.414 309.694 534.751 285.642ZM924.96 285.642C925.131 273.429 907.624 276.391 900.336 279.04C885.228 284.532 871.744 298.426 866.232 313.446C883.923 314.298 924.622 309.694 924.96 285.642ZM1044.74 276.417C1025.41 274.824 1001.99 295.627 996.35 313.446C1011.93 313.635 1037.92 311.487 1049.24 299.423C1056.5 291.686 1058.72 277.569 1044.74 276.417Z" fill="white"/>
</svg>
